FT88-Gothique.ufo
<glyph name="exclam" format="2">
	<advance width="700"/>
	<unicode hex="0021"/>
	<outline>
		<contour>
			<point x="400" y="200" type="line"/>
			<point x="300" y="200" type="line"/>
			<point x="300" y="300" type="line"/>
			<point x="400" y="300" type="line"/>
			<point x="400" y="800" type="line"/>
			<point x="300" y="800" type="line"/>
			<point x="300" y="700" type="line"/>
			<point x="200" y="700" type="line"/>
			<point x="200" y="200" type="line"/>
			<point x="300" y="200" type="line"/>
			<point x="300" y="100" type="line"/>
			<point x="200" y="100" type="line"/>
			<point x="200" y="-100" type="line"/>
			<point x="300" y="-100" type="line"/>
			<point x="300" y="0" type="line"/>
			<point x="400" y="0" type="line"/>
		</contour>
	</outline>
</glyph>
<glyph name="quotedbl" format="2">
	<advance width="700"/>
	<unicode hex="0022"/>
	<outline>
		<contour>
			<point x="500" y="500" type="line"/>
			<point x="500" y="600" type="line"/>
			<point x="600" y="600" type="line"/>
			<point x="600" y="800" type="line"/>
			<point x="500" y="800" type="line"/>
			<point x="500" y="700" type="line"/>
			<point x="400" y="700" type="line"/>
			<point x="400" y="500" type="line"/>
		</contour>
		<contour>
			<point x="200" y="500" type="line"/>
			<point x="200" y="600" type="line"/>
			<point x="300" y="600" type="line"/>
			<point x="300" y="800" type="line"/>
			<point x="200" y="800" type="line"/>
			<point x="200" y="700" type="line"/>
			<point x="100" y="700" type="line"/>
			<point x="100" y="500" type="line"/>
		</contour>
	</outline>
</glyph>
<glyph name="hyphen" format="2">
	<advance width="700"/>
	<unicode hex="002D"/>
	<outline>
		<contour>
			<point x="200" y="200" type="line"/>
			<point x="200" y="300" type="line"/>
			<point x="300" y="300" type="line"/>
			<point x="300" y="400" type="line"/>
			<point x="600" y="400" type="line"/>
			<point x="600" y="300" type="line"/>
			<point x="500" y="300" type="line"/>
			<point x="500" y="200" type="line"/>
		</contour>
	</outline>
</glyph>
<glyph name="seven" format="2">
	<advance width="700"/>
	<unicode hex="0037"/>
	<outline>
		<contour>
			<point x="200" y="-100" type="line"/>
			<point x="200" y="300" type="line"/>
			<point x="300" y="300" type="line"/>
			<point x="300" y="500" type="line"/>
			<point x="400" y="500" type="line"/>
			<point x="400" y="600" type="line"/>
			<point x="100" y="600" type="line"/>
			<point x="100" y="699" type="line"/>
			<point x="200" y="699" type="line"/>
			<point x="200" y="800" type="line"/>
			<point x="700" y="800" type="line"/>
			<point x="700" y="700" type="line"/>
			<point x="600" y="700" type="line"/>
			<point x="600" y="500" type="line"/>
			<point x="500" y="500" type="line"/>
			<point x="500" y="300" type="line"/>
			<point x="400" y="300" type="line"/>
			<point x="400" y="-100" type="line"/>
		</contour>
		<contour>
			<point x="0" y="500" type="line"/>
			<point x="0" y="600" type="line"/>
			<point x="100" y="600" type="line"/>
			<point x="100" y="500" type="line"/>
		</contour>
	</outline>
</glyph>
<glyph name="question" format="2">
	<advance width="700"/>
	<unicode hex="003F"/>
	<outline>
		<contour>
			<point x="300" y="700" type="line"/>
			<point x="300" y="800" type="line"/>
			<point x="500" y="800" type="line"/>
			<point x="500" y="700" type="line"/>
			<point x="600" y="700" type="line"/>
			<point x="600" y="600" type="line"/>
			<point x="500" y="600" type="line"/>
			<point x="500" y="300" type="line"/>
			<point x="400" y="300" type="line"/>
			<point x="400" y="200" type="line"/>
			<point x="500" y="200" type="line"/>
			<point x="500" y="0" type="line"/>
			<point x="400" y="0" type="line"/>
			<point x="400" y="-100" type="line"/>
			<point x="300" y="-100" type="line"/>
			<point x="300" y="100" type="line"/>
			<point x="400" y="100" type="line"/>
			<point x="400" y="200" type="line"/>
			<point x="300" y="200" type="line"/>
			<point x="300" y="600" type="line"/>
			<point x="200" y="600" type="line"/>
			<point x="200" y="700" type="line"/>
		</contour>
		<contour>
			<point x="300" y="700" type="line"/>
			<point x="300" y="600" type="line"/>
			<point x="400" y="600" type="line"/>
			<point x="400" y="700" type="line"/>
		</contour>
	</outline>
</glyph>
<glyph name="D" format="2">
	<advance width="700"/>
	<unicode hex="0044"/>
	<outline>
		<contour>
			<point x="0" y="200" type="line"/>
			<point x="0" y="300" type="line"/>
			<point x="100" y="300" type="line"/>
			<point x="100" y="600" type="line"/>
			<point x="0" y="600" type="line"/>
			<point x="0" y="700" type="line"/>
			<point x="100" y="700" type="line"/>
			<point x="100" y="800" type="line"/>
			<point x="200" y="800" type="line"/>
			<point x="200" y="700" type="line"/>
			<point x="300" y="700" type="line"/>
			<point x="300" y="0" type="line"/>
			<point x="500" y="0" type="line"/>
			<point x="500" y="-100" type="line"/>
			<point x="300" y="-100" type="line"/>
			<point x="300" y="0" type="line"/>
			<point x="100" y="0" type="line"/>
			<point x="100" y="200" type="line"/>
		</contour>
		<contour>
			<point x="500" y="0" type="line"/>
			<point x="500" y="700" type="line"/>
			<point x="300" y="700" type="line"/>
			<point x="300" y="800" type="line"/>
			<point x="500" y="800" type="line"/>
			<point x="500" y="700" type="line"/>
			<point x="600" y="700" type="line"/>
			<point x="600" y="600" type="line"/>
			<point x="700" y="600" type="line"/>
			<point x="700" y="100" type="line"/>
			<point x="600" y="100" type="line"/>
			<point x="600" y="0" type="line"/>
		</contour>
		<contour>
			<point x="0" y="-100" type="line"/>
			<point x="0" y="0" type="line"/>
			<point x="100" y="0" type="line"/>
			<point x="100" y="-100" type="line"/>
		</contour>
	</outline>
</glyph>
<glyph name="bracketleft" format="2">
	<advance width="700"/>
	<unicode hex="005B"/>
	<outline>
		<contour>
			<point x="200" y="800" type="line"/>
			<point x="200" y="-200" type="line"/>
			<point x="600" y="-200" type="line"/>
			<point x="600" y="-100" type="line"/>
			<point x="400" y="-100" type="line"/>
			<point x="400" y="700" type="line"/>
			<point x="600" y="700" type="line"/>
			<point x="600" y="800" type="line"/>
		</contour>
	</outline>
</glyph>
<glyph name="backslash" format="2">
	<advance width="700"/>
	<unicode hex="005C"/>
	<outline>
		<contour>
			<point x="300" y="600" type="line"/>
			<point x="300" y="400" type="line"/>
			<point x="200" y="400" type="line"/>
			<point x="200" y="600" type="line"/>
		</contour>
		<contour>
			<point x="600" y="0" type="line"/>
			<point x="600" y="-200" type="line"/>
			<point x="500" y="-200" type="line"/>
			<point x="500" y="0" type="line"/>
		</contour>
		<contour>
			<point x="400" y="400" type="line"/>
			<point x="400" y="200" type="line"/>
			<point x="300" y="200" type="line"/>
			<point x="300" y="400" type="line"/>
		</contour>
		<contour>
			<point x="500" y="200" type="line"/>
			<point x="500" y="0" type="line"/>
			<point x="400" y="0" type="line"/>
			<point x="400" y="200" type="line"/>
		</contour>
		<contour>
			<point x="200" y="800" type="line"/>
			<point x="200" y="600" type="line"/>
			<point x="100" y="600" type="line"/>
			<point x="100" y="800" type="line"/>
		</contour>
	</outline>
</glyph>
<glyph name="asciicircum" format="2">
	<advance width="700"/>
	<unicode hex="005E"/>
	<outline>
		<contour>
			<point x="400" y="700" type="line"/>
			<point x="400" y="600" type="line"/>
			<point x="500" y="600" type="line"/>
			<point x="500" y="700" type="line"/>
			<point x="400" y="700" type="line"/>
			<point x="400" y="800" type="line"/>
			<point x="300" y="800" type="line"/>
			<point x="300" y="700" type="line"/>
		</contour>
		<contour>
			<point x="200" y="700" type="line"/>
			<point x="200" y="600" type="line"/>
			<point x="300" y="600" type="line"/>
			<point x="300" y="700" type="line"/>
		</contour>
	</outline>
</glyph>
<glyph name="underscore" format="2">
	<advance width="700"/>
	<unicode hex="005F"/>
	<outline>
		<contour>
			<point x="0" y="-200" type="line"/>
			<point x="0" y="-100" type="line"/>
			<point x="100" y="-100" type="line"/>
			<point x="100" y="0" type="line"/>
			<point x="700" y="0" type="line"/>
			<point x="700" y="-100" type="line"/>
			<point x="600" y="-100" type="line"/>
			<point x="600" y="-200" type="line"/>
		</contour>
	</outline>
</glyph>
<glyph name="f" format="2">
	<advance width="700"/>
	<unicode hex="0066"/>
	<outline>
		<contour>
			<point x="400" y="400" type="line"/>
			<point x="400" y="0" type="line"/>
			<point x="500" y="0" type="line"/>
			<point x="500" y="-100" type="line"/>
			<point x="400" y="-100" type="line"/>
			<point x="400" y="-200" type="line"/>
			<point x="300" y="-200" type="line"/>
			<point x="300" y="-100" type="line"/>
			<point x="200" y="-100" type="line"/>
			<point x="200" y="400" type="line"/>
			<point x="100" y="400" type="line"/>
			<point x="100" y="500" type="line"/>
			<point x="200" y="500" type="line"/>
			<point x="200" y="600" type="line"/>
			<point x="300" y="600" type="line"/>
			<point x="300" y="700" type="line"/>
			<point x="400" y="700" type="line"/>
			<point x="400" y="500" type="line"/>
			<point x="500" y="500" type="line"/>
			<point x="500" y="700" type="line"/>
			<point x="400" y="700" type="line"/>
			<point x="400" y="800" type="line"/>
			<point x="600" y="800" type="line"/>
			<point x="600" y="700" type="line"/>
			<point x="700" y="700" type="line"/>
			<point x="700" y="600" type="line"/>
			<point x="600" y="600" type="line"/>
			<point x="600" y="400" type="line"/>
		</contour>
	</outline>
</glyph>
<glyph name="v" format="2">
	<advance width="700"/>
	<unicode hex="0076"/>
	<outline>
		<contour>
			<point x="0" y="400" type="line"/>
			<point x="0" y="500" type="line"/>
			<point x="100" y="500" type="line"/>
			<point x="100" y="600" type="line"/>
			<point x="200" y="600" type="line"/>
			<point x="200" y="500" type="line"/>
			<point x="300" y="500" type="line"/>
			<point x="300" y="0" type="line"/>
			<point x="400" y="0" type="line"/>
			<point x="400" y="-100" type="line"/>
			<point x="200" y="-100" type="line"/>
			<point x="200" y="0" type="line"/>
			<point x="100" y="0" type="line"/>
			<point x="100" y="400" type="line"/>
		</contour>
		<contour>
			<point x="400" y="0" type="line"/>
			<point x="400" y="600" type="line"/>
			<point x="500" y="600" type="line"/>
			<point x="500" y="500" type="line"/>
			<point x="600" y="500" type="line"/>
			<point x="600" y="100" type="line"/>
			<point x="500" y="100" type="line"/>
			<point x="500" y="0" type="line"/>
		</contour>
	</outline>
</glyph>
<glyph name="braceleft" format="2">
	<advance width="700"/>
	<unicode hex="007B"/>
	<outline>
		<contour>
			<point x="100" y="400" type="line"/>
			<point x="100" y="200" type="line"/>
			<point x="200" y="200" type="line"/>
			<point x="200" y="-100" type="line"/>
			<point x="400" y="-100" type="line"/>
			<point x="400" y="-200" type="line"/>
			<point x="600" y="-200" type="line"/>
			<point x="600" y="-100" type="line"/>
			<point x="400" y="-100" type="line"/>
			<point x="400" y="200" type="line"/>
			<point x="300" y="200" type="line"/>
			<point x="300" y="400" type="line"/>
			<point x="400" y="400" type="line"/>
			<point x="400" y="700" type="line"/>
			<point x="200" y="700" type="line"/>
			<point x="200" y="400" type="line"/>
		</contour>
		<contour>
			<point x="400" y="700" type="line"/>
			<point x="600" y="700" type="line"/>
			<point x="600" y="800" type="line"/>
			<point x="400" y="800" type="line"/>
		</contour>
	</outline>
</glyph>
<glyph name="bar" format="2">
	<advance width="700"/>
	<unicode hex="007C"/>
	<outline>
		<contour>
			<point x="300" y="800" type="line"/>
			<point x="300" y="-200" type="line"/>
			<point x="400" y="-200" type="line"/>
			<point x="400" y="800" type="line"/>
		</contour>
	</outline>
</glyph>
<glyph name="aring" format="2">
	<advance width="700"/>
	<unicode hex="00E5"/>
	<outline>
		<contour>
			<point x="400" y="800" type="line"/>
			<point x="400" y="700" type="line"/>
			<point x="500" y="700" type="line"/>
			<point x="500" y="800" type="line"/>
		</contour>
		<component base="a"/>
	</outline>
</glyph>
<glyph name="iacute" format="2">
	<advance width="700"/>
	<unicode hex="00ED"/>
	<outline>
		<contour>
			<point x="200" y="600" type="line"/>
			<point x="200" y="500" type="line"/>
			<point x="300" y="500" type="line"/>
			<point x="300" y="600" type="line"/>
		</contour>
		<component base="i"/>
	</outline>
</glyph>
<glyph name="icircumflex" format="2">
	<advance width="700"/>
	<unicode hex="00EE"/>
	<outline>
		<contour>
			<point x="500" y="700" type="line"/>
			<point x="500" y="600" type="line"/>
			<point x="600" y="600" type="line"/>
			<point x="600" y="700" type="line"/>
		</contour>
		<component base="i"/>
	</outline>
</glyph>
<glyph name="emdash" format="2">
	<advance width="700"/>
	<unicode hex="2014"/>
	<outline>
		<contour>
			<point x="0" y="200" type="line"/>
			<point x="0" y="300" type="line"/>
			<point x="100" y="300" type="line"/>
			<point x="100" y="400" type="line"/>
			<point x="700" y="400" type="line"/>
			<point x="700" y="300" type="line"/>
			<point x="600" y="300" type="line"/>
			<point x="600" y="200" type="line"/>
		</contour>
	</outline>
</glyph>
<glyph name="dagger" format="2">
	<advance width="700"/>
	<unicode hex="2020"/>
	<outline>
		<contour>
			<point x="300" y="699" type="line"/>
			<point x="300" y="600" type="line"/>
			<point x="200" y="600" type="line"/>
			<point x="200" y="500" type="line"/>
			<point x="300" y="500" type="line"/>
			<point x="300" y="-200" type="line"/>
			<point x="400" y="-200" type="line"/>
			<point x="400" y="-100" type="line"/>
			<point x="500" y="-100" type="line"/>
			<point x="500" y="500" type="line"/>
			<point x="600" y="500" type="line"/>
			<point x="600" y="600" type="line"/>
			<point x="500" y="600" type="line"/>
			<point x="500" y="800" type="line"/>
			<point x="400" y="800" type="line"/>
			<point x="400" y="699" type="line"/>
		</contour>
	</outline>
</glyph>
<glyph name="Ntilde.ss01" format="2">
	<advance width="700"/>
	<outline>
		<contour>
			<point x="300" y="1000" type="line"/>
			<point x="300" y="900" type="line"/>
			<point x="400" y="900" type="line"/>
			<point x="400" y="1000" type="line"/>
			<point x="300" y="1000" type="line"/>
			<point x="300" y="1100" type="line"/>
			<point x="200" y="1100" type="line"/>
			<point x="200" y="1000" type="line"/>
		</contour>
		<contour>
			<point x="400" y="1100" type="line"/>
			<point x="400" y="1000" type="line"/>
			<point x="500" y="1000" type="line"/>
			<point x="500" y="1100" type="line"/>
		</contour>
		<contour>
			<point x="100" y="1000" type="line"/>
			<point x="100" y="900" type="line"/>
			<point x="200" y="900" type="line"/>
			<point x="200" y="1000" type="line"/>
		</contour>
		<component base="N"/>
	</outline>
</glyph>
<glyph name="vtf" format="2">
	<advance width="1400"/>
	<outline>
		<contour>
			<point x="400" y="600" type="line"/>
			<point x="400" y="0" type="line"/>
			<point x="500" y="0" type="line"/>
			<point x="500" y="100" type="line"/>
			<point x="600" y="100" type="line"/>
			<point x="600" y="400" type="line"/>
			<point x="700" y="400" type="line"/>
			<point x="700" y="0" type="line"/>
			<point x="800" y="0" type="line"/>
			<point x="800" y="-100" type="line"/>
			<point x="900" y="-100" type="line"/>
			<point x="900" y="0" type="line"/>
			<point x="1000" y="0" type="line"/>
			<point x="1000" y="-100" type="line"/>
			<point x="1100" y="-100" type="line"/>
			<point x="1100" y="-200" type="line"/>
			<point x="1200" y="-200" type="line"/>
			<point x="1200" y="-100" type="line"/>
			<point x="1300" y="-100" type="line"/>
			<point x="1300" y="0" type="line"/>
			<point x="1200" y="0" type="line"/>
			<point x="1200" y="400" type="line"/>
			<point x="1300" y="400" type="line"/>
			<point x="1300" y="500" type="line"/>
			<point x="1200" y="500" type="line"/>
			<point x="1200" y="700" type="line"/>
			<point x="1100" y="700" type="line"/>
			<point x="1100" y="600" type="line"/>
			<point x="1000" y="600" type="line"/>
			<point x="1000" y="500" type="line"/>
			<point x="900" y="500" type="line"/>
			<point x="900" y="700" type="line"/>
			<point x="800" y="700" type="line"/>
			<point x="800" y="600" type="line"/>
			<point x="700" y="600" type="line"/>
			<point x="700" y="500" type="line"/>
			<point x="500" y="500" type="line"/>
			<point x="500" y="600" type="line"/>
		</contour>
		<contour>
			<point x="0" y="500" type="line"/>
			<point x="0" y="400" type="line"/>
			<point x="100" y="400" type="line"/>
			<point x="100" y="0" type="line"/>
			<point x="200" y="0" type="line"/>
			<point x="200" y="-100" type="line"/>
			<point x="400" y="-100" type="line"/>
			<point x="400" y="0" type="line"/>
			<point x="300" y="0" type="line"/>
			<point x="300" y="500" type="line"/>
			<point x="200" y="500" type="line"/>
			<point x="200" y="600" type="line"/>
			<point x="100" y="600" type="line"/>
			<point x="100" y="500" type="line"/>
		</contour>
		<contour>
			<point x="1000" y="100" type="line"/>
			<point x="900" y="100" type="line"/>
			<point x="900" y="400" type="line"/>
			<point x="1000" y="400" type="line"/>
		</contour>
		<contour>
			<point x="1200" y="800" type="line"/>
			<point x="1200" y="700" type="line"/>
			<point x="1400" y="700" type="line"/>
			<point x="1400" y="800" type="line"/>
		</contour>
	</outline>
</glyph>
